<svg width="133" height="133" viewBox="0 0 133 133" fill="none" xmlns="http://www.w3.org/2000/svg">
<path fill-rule="evenodd" clip-rule="evenodd" d="M58.3711 66.897C58.3711 71.4331 62.0802 75.1445 66.6136 75.1445H116.068L124.311 66.897L116.068 58.6496H66.6136C62.0802 58.6496 58.3711 62.3609 58.3711 66.897Z" fill="#00CCCC"/>
<path fill-rule="evenodd" clip-rule="evenodd" d="M66.6131 29.7836C46.1306 29.7836 29.522 46.4021 29.522 66.897C29.522 87.3919 46.1306 104.01 66.6131 104.01H87.2193L103.704 87.5156H66.6131C55.2385 87.5156 46.0069 78.2785 46.0069 66.897C46.0069 55.5156 55.2385 46.2784 66.6131 46.2784H103.704L87.2193 29.7836H66.6131Z" fill="#00CCCC"/>
<path fill-rule="evenodd" clip-rule="evenodd" d="M66.6126 0.917542C30.1809 0.917542 0.672852 30.4433 0.672852 66.897C0.672852 103.351 30.1809 132.876 66.6126 132.876H132.552V116.382H66.6126C39.2888 116.382 17.1578 94.2372 17.1578 66.897C17.1578 39.5567 39.2888 17.4124 66.6126 17.4124H132.552V0.917542H66.6126Z" fill="#00CCCC"/>
<path fill-rule="evenodd" clip-rule="evenodd" d="M120.189 46.2784H132.553V29.7836H103.704L120.189 46.2784Z" fill="#00CCCC"/>
<path fill-rule="evenodd" clip-rule="evenodd" d="M103.704 104.01H132.553V87.5156H120.189L103.704 104.01Z" fill="#00CCCC"/>
</svg>
