<svg xmlns="http://www.w3.org/2000/svg" xmlns:xlink="http://www.w3.org/1999/xlink" width="1024" height="870" viewBox="0 0 1024 870"><defs><style>.a{fill:#77ce79;opacity:0.03;}.b{opacity:0.581;}.c,.d,.h,.k,.l{fill:#00b161;}.d,.e{stroke:#00b161;}.e,.g{fill:none;}.f{opacity:0.942;}.g{stroke:#2d6979;opacity:0.295;}.h{opacity:0.701;}.i{opacity:0.596;}.i,.j{fill:url(#a);}.k{opacity:0.545;}.l{opacity:0.755;}</style><linearGradient id="a" x1="0.5" x2="0.5" y2="1" gradientUnits="objectBoundingBox"><stop offset="0" stop-color="#00b161"/><stop offset="0.537" stop-color="#49cb90"/><stop offset="1" stop-color="#005931"/></linearGradient></defs><g transform="translate(-880 -56)"><path class="a" d="M362,0C561.927,0,724,127.6,724,285S561.927,570,362,570,0,442.4,0,285,162.073,0,362,0Z" transform="translate(1030 206)"/><g class="b" transform="translate(7.935 64.471)"><g transform="translate(1010 514.286)"><rect class="c" width="9" height="118" rx="1" transform="translate(0.065 21.008)"/><path class="d" d="M0,0V159.7" transform="translate(4.403)"/></g><g transform="translate(1125.263 521.331)"><rect class="c" width="9" height="117" rx="1" transform="translate(-0.198 20.962)"/><line class="e" y2="159.698" transform="translate(4.217 0)"/></g><g transform="translate(1038.372 470.838)"><rect class="c" width="9" height="117" rx="1" transform="translate(-0.308 20.455)"/><line class="e" y2="159.698" transform="translate(4.8 0)"/></g><g transform="translate(1096.891 476.122)"><rect class="c" width="9" height="116" rx="1" transform="translate(0.174 22.171)"/><line class="e" y2="159.698" transform="translate(3.82 0)"/></g><g transform="translate(1066.745 434.436)"><rect class="c" width="9" height="117" rx="1" transform="translate(0.32 21.857)"/><path class="d" d="M0,0V159.7" transform="translate(5.197)"/></g></g><g class="b" transform="translate(591.435 -247.119)"><g transform="translate(1010 514.286)"><rect class="c" width="9" height="118" rx="1" transform="translate(0.065 21.008)"/><path class="d" d="M0,0V159.7" transform="translate(4.403)"/></g><g transform="translate(1125.263 521.331)"><rect class="c" width="9" height="117" rx="1" transform="translate(-0.198 20.962)"/><line class="e" y2="159.698" transform="translate(4.217 0)"/></g><g transform="translate(1038.372 470.838)"><rect class="c" width="9" height="117" rx="1" transform="translate(-0.308 20.455)"/><line class="e" y2="159.698" transform="translate(4.8 0)"/></g><g transform="translate(1096.891 476.122)"><rect class="c" width="9" height="116" rx="1" transform="translate(0.174 22.171)"/><line class="e" y2="159.698" transform="translate(3.82 0)"/></g><g transform="translate(1066.745 434.436)"><rect class="c" width="9" height="117" rx="1" transform="translate(0.32 21.857)"/><path class="d" d="M0,0V159.7" transform="translate(5.197)"/></g></g><g class="f" transform="translate(941.169 257.029)"><line class="g" x2="858.125"/><line class="g" x2="858.125" transform="translate(0 166.103)"/><line class="g" x2="858.125" transform="translate(0 332.207)"/><line class="g" x2="858.125" transform="translate(0 77.847)"/><line class="g" x2="858.125" transform="translate(0 243.95)"/><line class="g" x2="858.125" transform="translate(0 410.054)"/></g><g class="f" transform="translate(1725.974 187.318) rotate(90)"><line class="g" x2="558.173" transform="translate(0 145.736)"/><line class="g" x2="558.173"/><line class="g" x2="557.433" transform="translate(0.749 311.84)"/><line class="g" x2="558.173" transform="translate(0 477.943)"/><line class="g" x2="558.173" transform="translate(0 223.583)"/><line class="g" x2="558.173" transform="translate(0 77.847)"/><line class="g" x2="557.433" transform="translate(0.749 389.687)"/><line class="g" x2="558.173" transform="translate(0 555.79)"/><line class="g" x2="558.173" transform="translate(0 633.637)"/><line class="g" x2="558.173" transform="translate(0 711.484)"/></g><g transform="translate(21.456 8.559)"><path class="h" d="M2012.617,844.119l143.721,73.24,140.652-65.446L2156.338,602.13Z" transform="translate(-806.626 -396.658)"/><path class="i" d="M2012.617,612.627l143.721,72.621,137.088-60.4L2156.338,770.883Z" transform="translate(-806.626 -69.36)"/><path class="j" d="M2013.039,670.717l143.078,72.753,140.072-64.683L2153.633,631.18Z" transform="translate(-805.826 -223.007)"/><path class="k" d="M2013.039,670.717l143.078,72.753,140.072-64.683L2153.633,631.18Z" transform="translate(-805.826 -187.646)"/><path class="k" d="M2013.039,670.717l143.078,72.753,140.072-64.683L2153.633,631.18Z" transform="translate(-805.826 -149.356)"/><path class="l" d="M1978.995,602.13V918.72l143.385-63.432Z" transform="translate(-630.818 -396.658)"/><path class="h" d="M2033.214,674.779l137.088-60.4L2033.214,760.414Z" transform="translate(-683.504 -58.892)"/></g></g></svg>