<svg xmlns="http://www.w3.org/2000/svg" width="60.894" height="59.478" viewBox="0 0 60.894 59.478"><defs><style>.a{fill:#fff;}</style></defs><g transform="translate(-225.052 -327.182)"><g transform="translate(229.3 331.43)"><path class="a" d="M246.462,351.424H230.884a2.835,2.835,0,0,1-2.832-2.832V333.014a2.835,2.835,0,0,1,2.832-2.832h15.578a2.835,2.835,0,0,1,2.832,2.832v15.578A2.835,2.835,0,0,1,246.462,351.424Zm-15.578-18.41h0v15.578h15.578V333.014Z" transform="translate(-228.052 -330.182)"/></g><g transform="translate(225.052 361.169)"><path class="a" d="M247.71,376.673H227.884a2.835,2.835,0,0,1-2.832-2.832V354.014a2.835,2.835,0,0,1,2.832-2.832H247.71a2.835,2.835,0,0,1,2.832,2.832V373.84A2.835,2.835,0,0,1,247.71,376.673Zm-18.41-4.248h16.994V355.43H229.3Z" transform="translate(-225.052 -351.182)"/></g><g transform="translate(260.456 327.182)"><path class="a" d="M254.3,331.43v16.994h16.994V331.43H254.3m-1.416-4.248H272.71a2.832,2.832,0,0,1,2.832,2.832V349.84a2.832,2.832,0,0,1-2.832,2.832H252.884a2.832,2.832,0,0,1-2.832-2.832V330.014A2.833,2.833,0,0,1,252.884,327.182Z" transform="translate(-250.052 -327.182)"/></g><path class="a" d="M2.832,0A2.832,2.832,0,1,1,0,2.832,2.832,2.832,0,0,1,2.832,0Z" transform="translate(276.033 361.17)"/><path class="a" d="M268.462,361.1v8.5H252.884V354.014h8.5v-2.832h-8.5a2.835,2.835,0,0,0-2.832,2.832v15.578a2.835,2.835,0,0,0,2.832,2.832h15.578a2.835,2.835,0,0,0,2.832-2.832v-8.5Z" transform="translate(10.404 9.987)"/></g></svg>