<?xml version="1.0" standalone="no"?>
<svg version="1.0" xmlns="http://www.w3.org/2000/svg"
     width="42" height="52" viewBox="0 0 256.000000 256.000000"
     preserveAspectRatio="xMidYMid meet">

  <g transform="translate(0.000000,256.000000) scale(0.100000,-0.100000)"
     fill="#fff" stroke="none">
    <path d="M910 1953 c0 -7 -308 -1306 -316 -1335 -5 -17 38 -18 805 -18 446 0
811 3 811 6 0 8 308 1309 316 1337 5 16 -38 17 -805 17 -446 0 -811 -3 -811
-7z m1410 -127 c-30 -30 -217 -205 -414 -390 l-359 -335 -76 112 c-42 62 -161
237 -264 390 l-188 277 678 0 678 0 -55 -54z m-1161 -293 c105 -155 191 -286
191 -290 -1 -12 -634 -496 -637 -486 -2 4 51 235 117 513 66 278 122 516 125
529 3 13 7 22 9 20 2 -2 90 -131 195 -286z m1126 -262 c-68 -288 -125 -527
-127 -533 -4 -12 -369 438 -374 460 -2 11 103 116 309 308 172 160 313 291
314 289 2 -1 -53 -237 -122 -524z m-816 -196 l64 -94 89 81 c88 80 89 81 108
62 10 -10 95 -113 189 -229 l170 -210 -329 -3 c-181 -1 -479 -1 -663 0 l-334
3 314 243 c174 133 318 242 322 242 3 0 35 -43 70 -95z"/>
    <path d="M80 1600 l0 -40 240 0 240 0 0 40 0 40 -240 0 -240 0 0 -40z"/>
    <path d="M80 1280 l0 -40 200 0 200 0 0 40 0 40 -200 0 -200 0 0 -40z"/>
    <path d="M80 960 l0 -40 160 0 160 0 0 40 0 40 -160 0 -160 0 0 -40z"/>
  </g>
</svg>
