<svg xmlns="http://www.w3.org/2000/svg" width="67.401" height="48" viewBox="0 0 67.401 48"><defs><style>.a{fill:#fff;}</style></defs><g transform="translate(-303.432 -352.228)"><g transform="translate(303.432 352.228)"><path class="a" d="M332.444,352.228a27.129,27.129,0,0,1,6.76,1.315,40.925,40.925,0,0,1,14.911,8.764c4.258,3.821,8.337,7.848,10.365,13.7v.505a22.071,22.071,0,0,1-3.816,6.667c-6.358,7.874-13.95,13.667-23.394,16.181a26.765,26.765,0,0,1-17.184-1.285,47.011,47.011,0,0,1-18.46-13.73,35.125,35.125,0,0,1-3.755-5.412,5.221,5.221,0,0,1,.018-5.555,38.014,38.014,0,0,1,5.743-7.651,46.909,46.909,0,0,1,15.42-11.033,31.947,31.947,0,0,1,9.7-2.452m1.628,3.713a24.031,24.031,0,0,0-6.7,1.065c-9.258,2.977-16.494,9.082-22.293,17.359-1.175,1.677-1.115,1.993.132,3.8a45.759,45.759,0,0,0,17.083,15.143c6.544,3.316,13.316,4.123,20.259,1.612,8.692-3.145,15.557-9.044,21.059-16.932,1.179-1.69,1.133-2.01-.088-3.8a47.018,47.018,0,0,0-14.27-13.605A28.786,28.786,0,0,0,330.382,355.957Z" transform="translate(-297.079 -352.228)"/><path class="a" d="M410,407.215a17.628,17.628,0,1,1,17.644,17.658A17.634,17.634,0,0,1,410,407.215Zm17.629-13.765a13.813,13.813,0,1,0,13.829,13.837A13.9,13.9,0,0,0,427.633,393.45Z" transform="translate(-394.032 -383.313)"/><path class="a" d="M467.167,432.323c-2.233,1.033-3.056,2.163-2.841,3.9a3.566,3.566,0,0,0,2.854,2.923c1.7.281,2.918-.582,3.992-2.837a10.459,10.459,0,0,1-2.705,13.592,10.614,10.614,0,0,1-14.843-14.951A10.462,10.462,0,0,1,467.167,432.323Z" transform="translate(-428.383 -417.548)"/></g></g></svg>