<svg xmlns="http://www.w3.org/2000/svg" width="59.664" height="61.99" viewBox="0 0 59.664 61.99"><defs><style>.a{fill:none;stroke:#fff;stroke-width:3px;}.a,.b{stroke-miterlimit:10;}.b,.d{fill:#fff;}.b{stroke:#000;stroke-width:1.5px;}.c{fill:#020a24;}</style></defs><g transform="translate(-163.477 -3496.396)"><path class="a" d="M204.389,115.077s-13.833-7.629-19.951-21.872c-6.506-15.143-5.026-27.269-5.026-27.269l24.977-9.526,25.093,9.41s.079,16.633-5.227,27.416A55.236,55.236,0,0,1,204.389,115.077Z" transform="translate(-14.268 3441.59)"/><path class="b" d="M200.84,64.892l3.716,2.544,4.5.126L210.57,71.8l3.568,2.748-1.271,4.321,1.271,4.321-3.568,2.748-1.511,4.243-4.5.126-3.716,2.544-3.716-2.544-4.5-.126-1.511-4.243-3.568-2.748,1.271-4.321-1.271-4.321,3.568-2.748,1.511-4.243,4.5-.126Z" transform="translate(8.139 3450.947)"/><path class="c" d="M193.241,77.644l5.309,5.409,7.979-11.5-8.114,7.709Z" transform="translate(8.863 3452.13)"/><path class="d" d="M200.975,101.2a.961.961,0,0,1-1.353.357c-2.517-1.582-9.79-6.707-13.414-15.142-4.572-10.64-3.607-19.091-3.563-19.446l.071-.577,17-6.483a.964.964,0,0,1,1.244.556h0a.965.965,0,0,1-.556,1.245l-15.889,6.059a40.927,40.927,0,0,0,3.468,17.884c3.38,7.87,10.344,12.789,12.668,14.266a.962.962,0,0,1,.326,1.28Z" transform="translate(-10.574 3445.636)"/></g></svg>