<svg xmlns="http://www.w3.org/2000/svg" width="35.634" height="35.634" viewBox="0 0 35.634 35.634">
  <defs>
    <style>.a {
      fill: #fff;
    }</style>
  </defs>
  <g transform="translate(-284.294 -5442.294)">
    <path class="a"
          d="M29.473,38.662a9.189,9.189,0,1,1,9.19-9.19A9.2,9.2,0,0,1,29.473,38.662Zm0-15.9a6.716,6.716,0,1,0,6.717,6.714A6.723,6.723,0,0,0,29.473,22.758Z"
          transform="translate(272.787 5430.788)"/>
    <ellipse class="a" cx="1.143" cy="1.143" rx="1.143" ry="1.143" transform="translate(311.624 5448.956)"/>
    <path class="a"
          d="M42.611,52.669H26.794A10.069,10.069,0,0,1,16.735,42.612V26.794A10.069,10.069,0,0,1,26.794,16.735H42.611A10.069,10.069,0,0,1,52.669,26.794V42.612A10.069,10.069,0,0,1,42.611,52.669ZM26.794,19.208a7.6,7.6,0,0,0-7.585,7.586V42.612A7.594,7.594,0,0,0,26.794,50.2H42.611A7.594,7.594,0,0,0,50.2,42.612V26.794a7.6,7.6,0,0,0-7.585-7.586Z"
          transform="translate(267.559 5425.559)"/>
  </g>
</svg>
