<svg xmlns="http://www.w3.org/2000/svg" xmlns:xlink="http://www.w3.org/1999/xlink" width="339.358" height="55.553" viewBox="0 0 339.358 55.553"><defs><style>.a,.c{fill:#fff;}.b{fill:url(#a);}.c{stroke:#fff;stroke-width:0.2px;}</style><linearGradient id="a" x1="0.5" y1="0.407" x2="0.5" y2="1" gradientUnits="objectBoundingBox"><stop offset="0" stop-color="#00b161"/><stop offset="1" stop-color="#027441"/></linearGradient></defs><g transform="translate(-138.014 -41)"><g transform="translate(138.014 41)"><g transform="translate(38.215 2.004)"><path class="a" d="M288.023,64.859h-5.912L231.066,27.538l5.4-12.7c1.683-4.123,7.448-4.735,10.257-1.254Z" transform="translate(-231.066 -11.313)"/><path class="a" d="M285.759,203.3h-2.621L260.511,186.76l2.394-5.631a2.692,2.692,0,0,1,4.547-.556Z" transform="translate(-255.294 -149.757)"/></g><g transform="translate(0 0)"><path class="b" d="M69.253,4.273,67.576,2.193a5.94,5.94,0,0,0-9.219,0L15.379,55.553H38.784l20.4-49.844A5.927,5.927,0,0,1,69.253,4.273Z" transform="translate(-15.379 0)"/><path class="b" d="M188.78,176.447l-.744-.922a2.633,2.633,0,0,0-4.087,0L164.9,199.179h10.375l9.044-22.1A2.627,2.627,0,0,1,188.78,176.447Z" transform="translate(-138.407 -143.626)"/></g></g><g transform="translate(233.186 -270.465)"><path class="c" d="M13.514,354.2a12.977,12.977,0,0,1-7.13-1.96A13,13,0,0,1,1.657,346.9,16.822,16.822,0,0,1,0,339.383H0a17.391,17.391,0,0,1,1.809-7.889,14.569,14.569,0,0,1,4.927-5.712,11.917,11.917,0,0,1,6.779-2.09h0a17.531,17.531,0,0,1,6.124.98,9,9,0,0,1,3.9,2.507h0a4.6,4.6,0,0,1,.915,2.42,37.816,37.816,0,0,1,.173,4.116h-.872a11.113,11.113,0,0,0-3.049-6.254,8.4,8.4,0,0,0-5.885-2.025h0a9.561,9.561,0,0,0-7.586,3.314q-2.875,3.309-2.875,10.635h0a18.1,18.1,0,0,0,1.11,6.406,10.852,10.852,0,0,0,3.465,4.819,9.23,9.23,0,0,0,5.885,1.852h0a10.043,10.043,0,0,0,5.556-1.527,14.012,14.012,0,0,0,4.25-4.576h0l.872.655a12.679,12.679,0,0,1-4.944,5.556,14.291,14.291,0,0,1-7.039,1.635Zm39.923-.438a6.219,6.219,0,0,1-3.986-1.37,18.321,18.321,0,0,1-3.817-4.949h0l-4.359-7.408H38.227v13.293H34.3V329.793a6.884,6.884,0,0,0-.607-3.292,2.571,2.571,0,0,0-2.442-1.067h-.872v-.872H41.714a17.044,17.044,0,0,1,7.494,1.635q3.4,1.635,3.4,6.167h0a6.284,6.284,0,0,1-1.982,5.079,11.626,11.626,0,0,1-4.992,2.372h0l4.58,7.629a14.949,14.949,0,0,0,2.9,3.769,5.412,5.412,0,0,0,2.984,1.245h0v.872a5.1,5.1,0,0,1-1.132.3,8.82,8.82,0,0,1-1.527.13Zm-15.21-15.254h3.136a8.136,8.136,0,0,0,3.053-.655,6.623,6.623,0,0,0,2.724-2.047,5.427,5.427,0,0,0,1.11-3.487h0a5.348,5.348,0,0,0-1.132-3.487,6.985,6.985,0,0,0-2.724-2.073,7.79,7.79,0,0,0-3.032-.672h0a13.119,13.119,0,0,0-3.136.434h0Zm47.118,15.037a8.358,8.358,0,0,1-4.142-1.154,8.081,8.081,0,0,1-3.27-4.511h0l-1.089-2.836H64.64l-3.487,8.284h-1.96l12.2-28.768H72.7l9.589,23.321a11.269,11.269,0,0,0,2.051,3.461,4.395,4.395,0,0,0,2.745,1.115h0v.872a6.548,6.548,0,0,1-1.744.217ZM65.295,343.3H75.973l-5.231-12.638Zm39.359,10.9A14.219,14.219,0,0,1,97,352.108a14.513,14.513,0,0,1-5.274-5.686,16.7,16.7,0,0,1-1.9-7.911h0a16.847,16.847,0,0,1,1.657-7.52,12.747,12.747,0,0,1,11.853-7.3h0a19.151,19.151,0,0,1,6.475.98,9,9,0,0,1,3.986,2.507h0a4.618,4.618,0,0,1,.893,2.312,27.234,27.234,0,0,1,.2,3.574h-.872a9.773,9.773,0,0,0-3.136-5.734,9.533,9.533,0,0,0-6.232-1.9h0a9.227,9.227,0,0,0-5.885,1.852A10.808,10.808,0,0,0,95.3,332.1a18.138,18.138,0,0,0-1.11,6.41h0q0,7.364,2.875,10.656a9.581,9.581,0,0,0,7.586,3.292h0a15.764,15.764,0,0,0,3.791-.395,12.893,12.893,0,0,0,2.962-1.132h0v-7.586a6.338,6.338,0,0,1,.481-2.572,3.838,3.838,0,0,1,2.069-1.809,17.042,17.042,0,0,1,2.768-.636l.087,1.107a3.521,3.521,0,0,0-.825.687,5.858,5.858,0,0,0-.655,3.136h0v8.2a17.943,17.943,0,0,1-4.927,2.09,23.339,23.339,0,0,1-5.751.655Zm29.553-.13a17.208,17.208,0,0,1-4.71-.655,10.129,10.129,0,0,1-3.769-1.874,3.581,3.581,0,0,1-1.462-2.789h0v-4.667h.785q.742,4.359,2.875,6.3a8.428,8.428,0,0,0,5.885,1.943h0a6.836,6.836,0,0,0,4.033-1.18,3.766,3.766,0,0,0,1.678-3.266h0a4.784,4.784,0,0,0-1.136-3.183,14.042,14.042,0,0,0-3.66-2.832h0l-5.361-3.183a12.291,12.291,0,0,1-3.947-3.357,7.2,7.2,0,0,1-1.154-4.142h0A6.781,6.781,0,0,1,126.6,325.8a9,9,0,0,1,6.124-2.025h0a15.708,15.708,0,0,1,4.4.633,9.6,9.6,0,0,1,3.6,1.83,3.546,3.546,0,0,1,1.418,2.767h0v4.662h-.785q-.742-4.359-2.815-6.254a8.3,8.3,0,0,0-5.816-1.9h0a5.5,5.5,0,0,0-3.53,1.219,3.887,3.887,0,0,0-1.527,3.183h0a4.143,4.143,0,0,0,1.11,2.962,18.269,18.269,0,0,0,3.73,2.75h0l5.361,3.179a15.963,15.963,0,0,1,4.181,3.314,6.005,6.005,0,0,1,1.223,3.877h0a7.505,7.505,0,0,1-2.442,5.864,9.518,9.518,0,0,1-6.623,2.2Zm50.21,1.219a10.25,10.25,0,0,1-4.884-.959,5.262,5.262,0,0,1-2.459-2.988,16.632,16.632,0,0,1-.72-5.426h0v-16.78l-10.9,24.192h-.872L153.251,328.7v24.626h-1.744V324.563h4.142l10.461,22.666,10.244-22.666h3.921v21.356a15.4,15.4,0,0,0,1.024,6.276,3.318,3.318,0,0,0,3.118,2.225h0Zm30.338-1.744a8.358,8.358,0,0,1-4.142-1.154,8.056,8.056,0,0,1-3.27-4.511h0l-1.089-2.836h-12.2l-3.487,8.284H188.6l12.2-28.768h1.305l9.589,23.321a11.339,11.339,0,0,0,2.047,3.461,4.415,4.415,0,0,0,2.75,1.115h0v.872a6.548,6.548,0,0,1-1.743.217ZM194.7,343.3h10.678l-5.231-12.638Zm48.51,10.461-18.741-23.316v22.882h-1.743V329.793a5.1,5.1,0,0,0-.893-3.227,3.642,3.642,0,0,0-3.032-1.132h-.434v-.872H221.2a7.967,7.967,0,0,1,3.4.655,7.206,7.206,0,0,1,2.485,1.96h0l15.254,18.962V324.563h1.743v29.2Z" transform="translate(0 0)"/></g></g></svg>