<svg xmlns="http://www.w3.org/2000/svg" xmlns:xlink="http://www.w3.org/1999/xlink" width="93.337" height="54.482" viewBox="0 0 93.337 54.482"><defs><style>.a{fill:#fff;}.b{fill:url(#a);}</style><linearGradient id="a" x1="0.5" y1="0.407" x2="0.5" y2="1" gradientUnits="objectBoundingBox"><stop offset="0" stop-color="#00b161"/><stop offset="1" stop-color="#027441"/></linearGradient></defs><g transform="translate(37.478 1.966)"><path class="a" d="M286.925,63.827h-5.8l-50.061-36.6,5.3-12.458c1.651-4.043,7.3-4.644,10.059-1.23Z" transform="translate(-231.066 -11.313)"/><path class="a" d="M285.273,202.847H282.7l-22.192-16.226,2.348-5.523a2.64,2.64,0,0,1,4.459-.545Z" transform="translate(-255.395 -150.332)"/></g><g transform="translate(0 0)"><path class="b" d="M68.215,4.19,66.57,2.151a5.826,5.826,0,0,0-9.041,0L15.379,54.482H38.333L58.341,5.6A5.813,5.813,0,0,1,68.215,4.19Z" transform="translate(-15.379 0)"/><path class="b" d="M188.32,176.411l-.729-.9a2.582,2.582,0,0,0-4.008,0L164.9,198.7h10.176l8.869-21.67A2.577,2.577,0,0,1,188.32,176.411Z" transform="translate(-138.917 -144.223)"/></g></svg>