<?xml version="1.0" standalone="no"?>
<svg version="1.0" xmlns="http://www.w3.org/2000/svg"
     width="32" height="32" viewBox="0 0 256.000000 256.000000"
     preserveAspectRatio="xMidYMid meet">

  <g transform="translate(0.000000,256.000000) scale(0.100000,-0.100000)"
     fill="#fff" stroke="none">
    <path d="M1090 2545 c-283 -45 -540 -180 -738 -389 -487 -515 -464 -1315 53
-1804 431 -408 1080 -465 1577 -139 122 80 285 243 365 365 326 497 269 1146
-139 1577 -290 306 -713 454 -1118 390z m386 -130 c158 -28 317 -93 455 -185
82 -56 243 -217 299 -299 268 -399 268 -903 0 -1302 -56 -82 -217 -243 -299
-299 -399 -268 -903 -268 -1302 0 -82 56 -243 217 -299 299 -268 399 -268 903
0 1302 56 82 217 243 299 299 134 90 297 157 448 184 105 19 291 19 399 1z"/>
    <path d="M1215 1543 c-352 -135 -650 -255 -662 -266 -49 -44 -32 -55 188 -122
l155 -47 374 236 c205 130 379 236 387 236 7 0 13 -4 13 -10 0 -5 -135 -132
-300 -281 l-300 -271 0 -113 c0 -129 8 -205 23 -205 5 0 46 36 91 80 45 44 85
80 89 80 4 0 78 -52 164 -116 86 -64 169 -121 184 -126 35 -12 63 2 77 39 18
45 222 1019 222 1058 0 36 -28 75 -52 75 -7 -1 -301 -112 -653 -247z"/>
  </g>
</svg>
