<svg xmlns="http://www.w3.org/2000/svg" width="64.746" height="64.431" viewBox="0 0 64.746 64.431"><defs><style>.a,.c{fill:none;stroke:#fff;stroke-width:3px;}.a{stroke-miterlimit:10;}.b{fill:#fff;stroke:rgba(0,0,0,0);}</style></defs><g transform="translate(-1749.094 -370.388)"><g transform="translate(1750.597 371.895)"><path class="a" d="M411.148,82.287l3.913-2.725a1.879,1.879,0,0,1,2.683.57l2.466,4.08a1.879,1.879,0,0,0,1.963.874l4.682-.9a1.88,1.88,0,0,1,2.219,1.612l.593,4.73a1.879,1.879,0,0,0,1.437,1.6l4.643,1.084a1.879,1.879,0,0,1,1.372,2.375l-1.382,4.563a1.879,1.879,0,0,0,.664,2.043l3.8,2.879a1.879,1.879,0,0,1,.287,2.727l-3.119,3.606a1.88,1.88,0,0,0-.224,2.137l2.3,4.175a1.879,1.879,0,0,1-.848,2.609l-4.316,2.026a1.879,1.879,0,0,0-1.074,1.86l.4,4.751A1.88,1.88,0,0,1,431.774,131l-4.766.095a1.88,1.88,0,0,0-1.738,1.263l-1.564,4.5a1.879,1.879,0,0,1-2.505,1.116l-4.393-1.852a1.879,1.879,0,0,0-2.1.447l-3.26,3.479a1.88,1.88,0,0,1-2.743,0l-3.26-3.479a1.878,1.878,0,0,0-2.1-.447l-4.394,1.852a1.879,1.879,0,0,1-2.505-1.116l-1.564-4.5a1.88,1.88,0,0,0-1.738-1.263L388.373,131a1.88,1.88,0,0,1-1.835-2.038l.4-4.751a1.879,1.879,0,0,0-1.074-1.86l-4.316-2.026a1.88,1.88,0,0,1-.848-2.609l2.3-4.175a1.88,1.88,0,0,0-.225-2.137l-3.119-3.606a1.879,1.879,0,0,1,.287-2.727l3.8-2.879a1.878,1.878,0,0,0,.664-2.043l-1.383-4.563a1.88,1.88,0,0,1,1.372-2.375l4.643-1.084a1.879,1.879,0,0,0,1.438-1.6l.593-4.73a1.879,1.879,0,0,1,2.219-1.612l4.682.9a1.879,1.879,0,0,0,1.963-.874l2.466-4.08a1.879,1.879,0,0,1,2.683-.57L409,82.287A1.88,1.88,0,0,0,411.148,82.287Z" transform="translate(-379.203 -79.225)"/><path class="b" d="M76.584,110.889a20.393,20.393,0,1,1,34.982-12,20.557,20.557,0,0,1-15.373,17.659,19.746,19.746,0,0,1-9.023.2s-1.31-.3-1.659.484c-.3.8.681,1.03.681,1.03a21.164,21.164,0,0,0,9.093.232,22.134,22.134,0,1,0-19.894-6.415.844.844,0,1,0,1.193-1.187Z" transform="translate(-60.112 -66.604)"/><rect class="b" width="3.93" height="1.774" rx="0.793" transform="translate(22.044 50.619) rotate(-150)"/></g><path class="c" d="M971.176-2102.984l-12.364,14.945-8.314-8.076" transform="translate(821.953 2496.981)"/></g></svg>