<svg xmlns="http://www.w3.org/2000/svg" width="30" height="22" viewBox="0 0 30.213 22.667">
  <defs>
    <style>.a {
      fill: #fff;
    }

    .b {
      fill: #141c32;
    }</style>
  </defs>
  <g transform="translate(-1046 -7042)">
    <path class="a"
          d="M29.911,8.891a7.265,7.265,0,0,0-1.2-3.2,4.168,4.168,0,0,0-3.027-1.363C21.455,4,15.113,4,15.113,4H15.1S8.757,4,4.53,4.328A4.169,4.169,0,0,0,1.5,5.691a7.277,7.277,0,0,0-1.2,3.2A51.915,51.915,0,0,0,0,14.107v2.444a51.9,51.9,0,0,0,.3,5.216,7.25,7.25,0,0,0,1.2,3.2,4.941,4.941,0,0,0,3.331,1.378c2.417.247,10.273.324,10.273.324s6.349-.011,10.577-.335a4.186,4.186,0,0,0,3.027-1.366,7.263,7.263,0,0,0,1.2-3.2,51.921,51.921,0,0,0,.3-5.216V14.108A51.921,51.921,0,0,0,29.911,8.891Z"
          transform="translate(1046 7038)"/>
    <path class="b" d="M12,10V21.333l9.445-5.667Z" transform="translate(1045.333 7037.667)"/>
  </g>
</svg>
