<?xml version="1.0" standalone="no"?>
<svg version="1.0" xmlns="http://www.w3.org/2000/svg"
 width="750.000000pt" height="464.000000pt" viewBox="0 0 750.000000 464.000000"
 preserveAspectRatio="xMidYMid meet">

<g transform="translate(0.000000,464.000000) scale(0.100000,-0.100000)"
fill="#000000" stroke="none">
<path d="M370 3414 c-45 -20 -77 -50 -101 -96 -19 -37 -19 -67 -17 -897 l3
-859 31 -39 c17 -21 48 -48 70 -59 l39 -22 3315 -3 3315 -4 40 22 c50 27 80
58 100 105 13 33 15 130 14 760 0 398 -4 782 -8 855 -7 121 -10 135 -34 167
-15 19 -44 45 -64 58 l-38 23 -3315 2 c-2946 2 -3319 1 -3350 -13z m794 -299
c57 -27 71 -65 71 -189 0 -78 -4 -110 -12 -113 -10 -4 -13 19 -14 89 0 115
-13 156 -58 182 -29 17 -40 18 -92 8 -142 -26 -162 -53 -167 -219 -3 -101 -7
-123 -19 -123 -13 0 -14 20 -12 129 4 112 7 133 25 157 31 42 63 62 124 78 72
19 115 19 154 1z m3494 -57 c3 -13 -3 -18 -20 -18 -34 0 -48 -18 -48 -62 0
-36 2 -38 31 -38 24 0 30 -4 27 -17 -2 -11 -14 -19 -30 -21 l-27 -3 -3 -117
c-3 -109 -4 -117 -23 -117 -19 0 -20 8 -23 118 -2 109 -4 117 -22 117 -13 0
-20 7 -20 20 0 13 7 20 19 20 15 0 19 10 24 47 4 35 12 53 32 71 32 27 78 27
83 0z m-1170 -190 c-3 -195 -4 -203 -23 -203 -19 0 -20 8 -23 203 l-2 202 25
0 25 0 -2 -202z m842 -3 c0 -198 -1 -205 -20 -205 -14 0 -20 7 -20 22 0 19 -1
20 -18 5 -51 -46 -120 -38 -157 19 -28 43 -27 138 3 186 36 58 107 72 155 30
16 -14 17 -10 17 66 0 75 2 82 20 82 19 0 20 -7 20 -205z m-2955 189 c28 -11
45 -60 45 -134 0 -56 -3 -70 -15 -70 -12 0 -15 13 -15 61 0 59 -11 96 -34 111
-6 4 -32 8 -58 8 -45 0 -57 7 -41 23 8 9 96 9 118 1z m975 -26 c59 -31 80 -73
80 -161 0 -139 -70 -206 -217 -207 l-63 0 0 195 0 195 78 0 c61 0 87 -5 122
-22z m-1174 -14 c2 -5 -11 -18 -28 -29 -37 -23 -46 -47 -47 -132 -1 -51 -4
-63 -17 -63 -26 0 -16 170 11 200 31 35 75 48 81 24z m1501 -89 c35 -24 56
-80 50 -138 -5 -58 -30 -96 -80 -120 -33 -17 -42 -17 -79 -5 -59 18 -88 63
-88 137 0 67 26 115 73 137 37 16 88 12 124 -11z m638 15 c41 -16 56 -66 53
-178 -3 -89 -5 -97 -23 -97 -19 0 -20 8 -23 105 -2 79 -7 109 -19 122 -22 25
-49 22 -78 -7 -23 -22 -25 -31 -25 -125 0 -99 0 -101 -22 -98 -22 3 -23 6 -26
141 l-3 137 26 0 c17 0 25 -6 25 -17 0 -14 2 -15 18 -1 32 28 58 33 97 18z
m430 -14 c13 -8 31 -35 40 -60 34 -89 -5 -183 -85 -207 -32 -10 -44 -9 -76 7
-58 29 -76 61 -76 134 0 72 18 104 73 133 38 20 87 17 124 -7z m273 -12 c20
-23 22 -35 22 -140 0 -107 -1 -114 -20 -114 -11 0 -20 7 -20 15 0 17 -16 20
-25 4 -22 -34 -105 -27 -125 11 -17 31 -12 88 9 109 11 11 44 24 75 31 63 13
67 16 55 47 -11 30 -51 39 -90 19 -41 -20 -41 -20 -37 7 2 15 14 26 38 34 47
17 90 8 118 -23z m800 8 c3 -18 -2 -22 -22 -22 -50 0 -64 -34 -69 -165 -2 -57
-5 -70 -19 -73 -16 -3 -18 9 -18 137 0 134 1 141 20 141 14 0 20 -7 20 -22 1
-21 1 -21 11 -5 11 19 47 38 64 33 6 -1 11 -12 13 -24z m222 0 c34 -25 54 -91
45 -147 -13 -89 -94 -143 -168 -112 -102 43 -105 227 -4 273 39 17 92 11 127
-14z m277 4 l28 -24 28 24 c38 32 72 30 108 -5 29 -29 29 -31 29 -145 0 -109
-1 -116 -20 -116 -19 0 -20 7 -20 94 0 102 -9 140 -36 150 -55 21 -84 -31 -84
-154 0 -82 -2 -90 -19 -90 -18 0 -20 10 -23 111 -3 96 -6 113 -22 125 -26 19
-39 18 -67 -5 -22 -18 -24 -28 -27 -125 -4 -96 -6 -106 -23 -106 -18 0 -19 9
-19 140 0 133 1 140 20 140 12 0 20 -7 20 -17 0 -14 2 -15 18 -1 38 34 72 35
109 4z m-2508 -23 c6 -21 18 -69 27 -106 9 -37 19 -66 21 -63 2 2 16 48 31
102 23 83 31 99 49 102 19 3 24 -6 45 -97 13 -56 26 -101 31 -101 4 0 7 3 8 8
0 4 10 48 23 97 19 77 25 90 44 93 26 4 28 18 -22 -158 -27 -98 -35 -115 -53
-118 -18 -3 -24 4 -33 40 -31 120 -43 158 -49 153 -3 -4 -17 -48 -31 -98 -21
-78 -29 -92 -47 -95 -18 -3 -24 4 -33 40 -6 24 -22 81 -36 128 -29 102 -29
110 -4 110 14 0 22 -10 29 -37z m-1121 -85 l92 -31 0 -491 0 -491 -99 -38 -99
-37 -174 35 c-95 20 -308 63 -473 96 -165 33 -308 62 -318 65 -16 5 -17 29
-15 372 l3 367 50 12 c28 7 113 24 190 38 188 35 545 103 625 120 96 20 116
18 218 -17z m2042 -678 l0 -310 -30 0 c-27 0 -30 3 -30 32 l0 32 -28 -28 c-76
-72 -190 -47 -241 52 -21 40 -25 143 -8 203 37 125 168 179 249 103 l28 -28 0
127 0 127 30 0 30 0 0 -310z m-826 274 c19 -18 20 -28 6 -55 -20 -36 -70 -17
-70 26 0 41 36 58 64 29z m2584 -6 c10 -9 18 -78 8 -78 -2 0 -17 7 -32 15 -45
23 -108 19 -141 -9 -23 -20 -28 -32 -27 -66 2 -49 11 -60 109 -127 95 -66 118
-101 113 -176 -4 -49 -9 -62 -38 -92 -51 -52 -137 -65 -222 -33 -24 9 -28 16
-28 49 0 22 1 39 3 39 1 0 20 -9 42 -20 91 -47 175 -15 175 66 0 36 -5 46 -39
75 -21 19 -62 50 -90 69 -74 51 -94 87 -89 160 4 61 26 97 73 123 44 24 155
27 183 5z m-3311 0 c5 -7 34 -113 64 -235 30 -123 57 -223 60 -223 4 0 9 10
12 23 5 23 104 399 113 430 6 20 47 23 61 5 6 -7 34 -113 64 -235 30 -123 57
-223 60 -223 3 0 27 91 54 203 69 288 61 267 94 267 39 0 41 -6 26 -58 -8 -26
-42 -156 -76 -289 l-62 -243 -34 0 c-41 0 -36 -12 -104 255 l-53 208 -59 -232
-60 -231 -33 0 c-18 0 -35 4 -38 8 -5 8 -57 200 -121 444 -18 70 -30 129 -27
132 10 11 49 6 59 -6z m3503 -98 l0 -60 45 0 c43 0 45 -1 45 -30 0 -29 -2 -30
-45 -30 l-45 0 0 -137 c0 -76 4 -145 9 -153 6 -8 24 -14 45 -13 33 1 36 -1 36
-27 0 -22 -5 -29 -25 -33 -43 -8 -87 7 -109 36 -19 25 -21 45 -24 178 l-4 149
-29 0 c-26 0 -29 4 -29 30 0 27 3 30 30 30 29 0 30 2 30 44 0 35 5 48 22 60
40 28 48 21 48 -44z m-2414 -81 c36 -34 44 -78 44 -246 l0 -153 -29 0 -29 0
-4 153 c-2 125 -6 158 -21 180 -34 53 -104 47 -144 -12 -21 -31 -23 -45 -23
-177 l0 -144 -30 0 -30 0 0 210 0 210 30 0 c27 0 30 -3 30 -32 l0 -32 16 23
c38 54 142 65 190 20z m814 9 c63 -32 95 -97 95 -193 0 -154 -105 -250 -235
-215 -86 23 -132 97 -133 210 0 104 34 167 108 201 54 25 112 24 165 -3z m864
12 c20 -7 26 -16 26 -41 0 -26 -3 -30 -17 -24 -10 4 -36 9 -59 12 -48 6 -74
-14 -74 -56 0 -32 17 -50 77 -80 58 -29 83 -64 83 -118 0 -86 -92 -141 -185
-111 -36 12 -40 16 -43 51 -3 38 -3 38 20 24 51 -33 130 -29 144 8 13 34 -6
61 -71 98 -93 54 -118 115 -75 185 32 53 111 76 174 52z m1146 -12 c67 -34 95
-90 95 -193 0 -67 -4 -87 -25 -124 -30 -53 -63 -79 -116 -91 -131 -30 -224 56
-224 207 0 112 30 170 105 204 54 25 111 24 165 -3z m344 16 c10 -4 16 -18 16
-38 0 -31 -1 -32 -36 -28 -27 3 -41 -1 -60 -19 -35 -32 -44 -78 -44 -216 l0
-123 -30 0 -30 0 0 210 0 210 30 0 c28 0 30 -3 30 -37 l0 -38 20 30 c11 17 32
35 47 42 33 14 37 15 57 7z m313 -25 c38 -35 63 -97 63 -156 l0 -53 -130 0
-130 0 0 -26 c0 -45 37 -92 82 -106 40 -12 58 -9 141 27 13 6 17 2 17 -17 0
-72 -156 -100 -238 -43 -55 39 -85 159 -63 252 14 57 61 119 105 139 46 21
121 12 153 -17z m-3839 -186 l-3 -208 -30 0 -30 0 -3 195 c-1 107 0 200 2 207
3 7 19 13 36 13 l30 0 -2 -207z m1396 44 c22 -87 42 -154 46 -150 3 4 19 53
34 108 59 216 54 205 87 205 23 0 30 -5 35 -27 12 -53 55 -228 66 -268 11 -40
11 -38 52 125 l41 165 34 3 c29 3 33 1 27 -15 -4 -10 -28 -92 -53 -183 -25
-91 -48 -176 -52 -190 -6 -19 -15 -26 -39 -28 -29 -3 -32 0 -42 40 -6 24 -25
96 -43 161 l-32 118 -45 -158 -45 -158 -32 -3 c-18 -2 -33 -1 -33 2 0 4 -25
95 -55 204 -30 109 -55 202 -55 206 0 4 15 6 32 4 l33 -3 39 -158z"/>
<path d="M4169 2881 c-24 -25 -29 -38 -29 -79 0 -64 27 -102 74 -102 42 0 66
26 73 79 7 51 -2 85 -29 111 -30 28 -54 25 -89 -9z"/>
<path d="M2192 2859 l3 -154 48 2 c26 2 61 10 77 18 79 41 91 204 19 257 -16
12 -50 22 -88 25 l-62 6 3 -154z"/>
<path d="M2553 2886 c-25 -22 -28 -31 -28 -84 0 -75 20 -102 77 -102 58 0 78
26 78 100 0 51 -4 65 -25 85 -31 32 -66 32 -102 1z"/>
<path d="M3623 2886 c-25 -22 -28 -31 -28 -84 0 -75 20 -102 76 -102 53 0 79
35 79 107 0 44 -5 58 -25 78 -31 32 -66 32 -102 1z"/>
<path d="M3923 2789 c-59 -17 -54 -89 7 -89 33 0 60 28 63 66 2 33 -16 39 -70
23z"/>
<path d="M4913 2886 c-24 -21 -28 -32 -28 -78 0 -75 23 -108 75 -108 58 0 80
28 80 102 0 49 -4 63 -25 83 -31 32 -66 32 -102 1z"/>
<path d="M1170 2544 c-52 -8 -101 -16 -107 -19 -9 -3 -13 -34 -13 -105 l0
-100 140 0 140 0 0 120 0 120 -32 -1 c-18 -1 -76 -8 -128 -15z"/>
<path d="M900 2506 l-75 -11 0 -85 0 -85 108 -3 107 -3 0 101 0 100 -32 -1
c-18 -1 -67 -7 -108 -13z"/>
<path d="M827 2303 c-4 -3 -7 -42 -7 -85 0 -91 -1 -90 110 -102 36 -4 75 -10
88 -13 22 -5 22 -4 22 101 l0 106 -103 0 c-57 0 -107 -3 -110 -7z"/>
<path d="M1057 2303 c-8 -7 -10 -203 -2 -203 3 0 47 -6 98 -14 50 -8 111 -17
135 -20 l42 -6 0 125 0 125 -133 0 c-74 0 -137 -3 -140 -7z"/>
<path d="M3509 2185 c-39 -21 -59 -72 -59 -152 0 -86 22 -127 78 -144 47 -14
83 0 116 44 31 42 35 169 7 215 -32 50 -90 65 -142 37z"/>
<path d="M3925 2178 c-36 -28 -55 -76 -55 -138 0 -92 38 -145 111 -156 43 -6
77 12 106 55 47 70 22 220 -42 249 -40 18 -89 14 -120 -10z"/>
<path d="M5951 2187 c-42 -21 -63 -60 -68 -128 -6 -88 23 -148 83 -168 57 -20
109 -1 135 49 23 42 25 145 5 195 -24 56 -99 81 -155 52z"/>
<path d="M6602 2184 c-24 -17 -52 -64 -52 -89 0 -12 16 -15 100 -15 111 0 112
1 86 65 -23 54 -86 73 -134 39z"/>
<path d="M7190 1885 c0 -176 2 -205 15 -205 13 0 15 29 15 205 0 176 -2 205
-15 205 -13 0 -15 -29 -15 -205z"/>
<path d="M7190 1650 c0 -5 7 -10 15 -10 8 0 15 5 15 10 0 6 -7 10 -15 10 -8 0
-15 -4 -15 -10z"/>
<path d="M7200 1598 c0 -36 -39 -106 -78 -139 -21 -17 -31 -28 -24 -25 6 4 12
5 12 2 0 -3 -13 -12 -30 -21 -26 -13 -392 -15 -3342 -15 -2611 -1 -3309 -3
-3293 -13 16 -9 738 -12 3305 -12 l3286 0 48 25 c54 28 106 84 111 121 2 13 7
41 11 62 3 20 4 37 0 37 -3 0 -6 -10 -6 -22z"/>
<path d="M7045 1420 c-13 -6 -15 -9 -5 -9 8 0 22 4 30 9 18 12 2 12 -25 0z"/>
</g>
</svg>
